<svg width="47" height="47" viewBox="0 0 47 47" fill="none" xmlns="http://www.w3.org/2000/svg">
<g clip-path="url(#clip0)">
<path d="M16.5141 36.8509L9.50869 40.6738C9.10118 40.9067 8.73248 41.1784 8.38318 41.4694C12.4777 44.9236 17.756 47 23.5194 47C29.244 47 34.4835 44.943 38.5587 41.5471C38.19 41.2366 37.7824 40.9455 37.3167 40.7126L29.8068 36.9674C28.8365 36.4822 28.2155 35.4926 28.2155 34.4059V31.4562C28.429 31.2234 28.6619 30.9129 28.9336 30.5442C29.962 29.1082 30.7383 27.5169 31.2622 25.848C32.2325 25.557 32.9311 24.6643 32.9311 23.597V20.4533C32.9311 19.7547 32.6206 19.1338 32.1549 18.7068V14.166C32.1549 14.166 33.0863 7.08298 23.5 7.08298C13.9137 7.08298 14.8646 14.166 14.8646 14.166V18.7068C14.3795 19.1338 14.0884 19.7547 14.0884 20.4533V23.597C14.0884 24.4314 14.5153 25.1495 15.1751 25.5764C15.9513 28.9917 18.0277 31.4562 18.0277 31.4562V34.3476C18.0083 35.3761 17.4261 36.3464 16.5141 36.8509Z" fill="#ECF0F1"/>
<path d="M23.9075 1.0601e-05C10.9252 -0.213449 0.232815 10.1297 -5.04004e-05 23.0925C-0.116483 30.4472 3.16304 37.0644 8.38311 41.4695C8.7324 41.1784 9.0817 40.9067 9.48922 40.6738L16.4946 36.851C17.4066 36.3464 17.9888 35.3761 17.9888 34.3283V31.4562C17.9888 31.4562 15.9318 28.9918 15.1362 25.5764C14.4764 25.1495 14.0495 24.4315 14.0495 23.597V20.4534C14.0495 19.7548 14.36 19.1338 14.8257 18.7069V14.166C14.8257 14.166 13.8943 7.083 23.4806 7.083C33.0668 7.083 32.1548 14.166 32.1548 14.166V18.7069C32.6399 19.1338 32.931 19.7548 32.931 20.4534V23.597C32.931 24.6449 32.213 25.5376 31.2621 25.8481C30.7188 27.5169 29.9426 29.1082 28.9335 30.5442C28.6812 30.9129 28.4289 31.2234 28.2155 31.4562V34.4059C28.2155 35.4926 28.8365 36.4823 29.8067 36.9674L37.3166 40.7126C37.763 40.9455 38.1705 41.2172 38.5586 41.5471C43.6234 37.3167 46.9029 31.0099 47.0194 23.9075C47.2134 10.9253 36.8897 0.232876 23.9075 1.0601e-05Z" fill="#556080"/>
</g>
<defs>
<clipPath id="clip0">
<rect width="47" height="47" fill="white"/>
</clipPath>
</defs>
</svg>
